<mxfile host="app.diagrams.net" agent="Mozilla/5.0 (Windows NT 10.0; Win64; x64) AppleWebKit/537.36 (KHTML, like Gecko) Chrome/140.0.0.0 Safari/537.36" version="28.2.5">
  <diagram name="Page-1" id="v2FYe-6HmkTZMSFRFF7n">
    <mxGraphModel dx="2066" dy="1145" grid="1" gridSize="10" guides="1" tooltips="1" connect="1" arrows="1" fold="1" page="1" pageScale="1" pageWidth="827" pageHeight="1169" math="0" shadow="0">
      <root>
        <mxCell id="0" />
        <mxCell id="1" parent="0" />
        <mxCell id="z2F2wyTJdAXGsAa179Ax-14" style="edgeStyle=orthogonalEdgeStyle;rounded=0;orthogonalLoop=1;jettySize=auto;html=1;exitX=1;exitY=0.5;exitDx=0;exitDy=0;entryX=0;entryY=0.5;entryDx=0;entryDy=0;" edge="1" parent="1" source="z2F2wyTJdAXGsAa179Ax-1" target="z2F2wyTJdAXGsAa179Ax-8">
          <mxGeometry relative="1" as="geometry" />
        </mxCell>
        <mxCell id="z2F2wyTJdAXGsAa179Ax-1" value="FIFO" style="rounded=0;whiteSpace=wrap;html=1;" vertex="1" parent="1">
          <mxGeometry x="399" y="301" width="74" height="40" as="geometry" />
        </mxCell>
        <mxCell id="z2F2wyTJdAXGsAa179Ax-4" style="edgeStyle=orthogonalEdgeStyle;rounded=0;orthogonalLoop=1;jettySize=auto;html=1;exitX=0.875;exitY=0.5;exitDx=0;exitDy=0;exitPerimeter=0;entryX=0.5;entryY=0;entryDx=0;entryDy=0;" edge="1" parent="1" source="z2F2wyTJdAXGsAa179Ax-2" target="z2F2wyTJdAXGsAa179Ax-3">
          <mxGeometry relative="1" as="geometry" />
        </mxCell>
        <mxCell id="z2F2wyTJdAXGsAa179Ax-13" style="edgeStyle=orthogonalEdgeStyle;rounded=0;orthogonalLoop=1;jettySize=auto;html=1;exitX=0.55;exitY=0.95;exitDx=0;exitDy=0;exitPerimeter=0;entryX=0;entryY=0.5;entryDx=0;entryDy=0;" edge="1" parent="1" source="z2F2wyTJdAXGsAa179Ax-2" target="z2F2wyTJdAXGsAa179Ax-3">
          <mxGeometry relative="1" as="geometry">
            <Array as="points">
              <mxPoint x="274" y="420" />
              <mxPoint x="337" y="420" />
              <mxPoint x="337" y="398" />
            </Array>
          </mxGeometry>
        </mxCell>
        <mxCell id="z2F2wyTJdAXGsAa179Ax-2" value="decision" style="ellipse;shape=cloud;whiteSpace=wrap;html=1;" vertex="1" parent="1">
          <mxGeometry x="230" y="310" width="80" height="80" as="geometry" />
        </mxCell>
        <mxCell id="z2F2wyTJdAXGsAa179Ax-6" style="edgeStyle=orthogonalEdgeStyle;rounded=0;orthogonalLoop=1;jettySize=auto;html=1;exitX=0.75;exitY=1;exitDx=0;exitDy=0;entryX=0;entryY=0.5;entryDx=0;entryDy=0;" edge="1" parent="1" source="z2F2wyTJdAXGsAa179Ax-3" target="z2F2wyTJdAXGsAa179Ax-1">
          <mxGeometry relative="1" as="geometry" />
        </mxCell>
        <mxCell id="z2F2wyTJdAXGsAa179Ax-7" style="edgeStyle=orthogonalEdgeStyle;rounded=0;orthogonalLoop=1;jettySize=auto;html=1;exitX=0.25;exitY=1;exitDx=0;exitDy=0;entryX=0;entryY=0.5;entryDx=0;entryDy=0;" edge="1" parent="1" source="z2F2wyTJdAXGsAa179Ax-3" target="z2F2wyTJdAXGsAa179Ax-5">
          <mxGeometry relative="1" as="geometry" />
        </mxCell>
        <mxCell id="z2F2wyTJdAXGsAa179Ax-3" value="" style="shape=trapezoid;perimeter=trapezoidPerimeter;whiteSpace=wrap;html=1;fixedSize=1;rotation=-90;" vertex="1" parent="1">
          <mxGeometry x="280" y="330" width="116" height="40" as="geometry" />
        </mxCell>
        <mxCell id="z2F2wyTJdAXGsAa179Ax-15" style="edgeStyle=orthogonalEdgeStyle;rounded=0;orthogonalLoop=1;jettySize=auto;html=1;exitX=1;exitY=0.5;exitDx=0;exitDy=0;entryX=0;entryY=0.5;entryDx=0;entryDy=0;" edge="1" parent="1" source="z2F2wyTJdAXGsAa179Ax-5" target="z2F2wyTJdAXGsAa179Ax-9">
          <mxGeometry relative="1" as="geometry" />
        </mxCell>
        <mxCell id="z2F2wyTJdAXGsAa179Ax-31" style="edgeStyle=orthogonalEdgeStyle;rounded=0;orthogonalLoop=1;jettySize=auto;html=1;exitX=0;exitY=0.75;exitDx=0;exitDy=0;" edge="1" parent="1" source="z2F2wyTJdAXGsAa179Ax-5">
          <mxGeometry relative="1" as="geometry">
            <mxPoint x="380" y="389.03846153846155" as="targetPoint" />
          </mxGeometry>
        </mxCell>
        <mxCell id="z2F2wyTJdAXGsAa179Ax-5" value="FIFO" style="rounded=0;whiteSpace=wrap;html=1;" vertex="1" parent="1">
          <mxGeometry x="399" y="359" width="74" height="40" as="geometry" />
        </mxCell>
        <mxCell id="z2F2wyTJdAXGsAa179Ax-8" value="Reg&lt;br&gt;Stage" style="rounded=0;whiteSpace=wrap;html=1;" vertex="1" parent="1">
          <mxGeometry x="490" y="301" width="30" height="40" as="geometry" />
        </mxCell>
        <mxCell id="z2F2wyTJdAXGsAa179Ax-9" value="Reg&lt;br&gt;Stage" style="rounded=0;whiteSpace=wrap;html=1;" vertex="1" parent="1">
          <mxGeometry x="490" y="359" width="30" height="40" as="geometry" />
        </mxCell>
        <mxCell id="z2F2wyTJdAXGsAa179Ax-11" style="edgeStyle=orthogonalEdgeStyle;rounded=0;orthogonalLoop=1;jettySize=auto;html=1;" edge="1" parent="1">
          <mxGeometry relative="1" as="geometry">
            <mxPoint x="193" y="354" as="sourcePoint" />
            <mxPoint x="243" y="354" as="targetPoint" />
            <Array as="points">
              <mxPoint x="193" y="354" />
            </Array>
          </mxGeometry>
        </mxCell>
        <mxCell id="z2F2wyTJdAXGsAa179Ax-12" style="edgeStyle=orthogonalEdgeStyle;rounded=0;orthogonalLoop=1;jettySize=auto;html=1;exitX=1;exitY=0.5;exitDx=0;exitDy=0;entryX=0.16;entryY=0.55;entryDx=0;entryDy=0;entryPerimeter=0;" edge="1" parent="1">
          <mxGeometry relative="1" as="geometry">
            <mxPoint x="122" y="354.8" as="sourcePoint" />
            <mxPoint x="181" y="354.8" as="targetPoint" />
          </mxGeometry>
        </mxCell>
        <mxCell id="z2F2wyTJdAXGsAa179Ax-16" style="edgeStyle=orthogonalEdgeStyle;rounded=0;orthogonalLoop=1;jettySize=auto;html=1;exitX=0.75;exitY=1;exitDx=0;exitDy=0;entryX=0;entryY=0.5;entryDx=0;entryDy=0;" edge="1" parent="1">
          <mxGeometry relative="1" as="geometry">
            <mxPoint x="520" y="320.83" as="sourcePoint" />
            <mxPoint x="561" y="320.83" as="targetPoint" />
          </mxGeometry>
        </mxCell>
        <mxCell id="z2F2wyTJdAXGsAa179Ax-17" style="edgeStyle=orthogonalEdgeStyle;rounded=0;orthogonalLoop=1;jettySize=auto;html=1;exitX=0.75;exitY=1;exitDx=0;exitDy=0;entryX=0;entryY=0.5;entryDx=0;entryDy=0;" edge="1" parent="1">
          <mxGeometry relative="1" as="geometry">
            <mxPoint x="520" y="378.83" as="sourcePoint" />
            <mxPoint x="561" y="378.83" as="targetPoint" />
          </mxGeometry>
        </mxCell>
        <mxCell id="z2F2wyTJdAXGsAa179Ax-10" value="Reg&lt;br&gt;Stage" style="rounded=0;whiteSpace=wrap;html=1;" vertex="1" parent="1">
          <mxGeometry x="181" y="335" width="30" height="40" as="geometry" />
        </mxCell>
        <mxCell id="z2F2wyTJdAXGsAa179Ax-19" value="+" style="ellipse;whiteSpace=wrap;html=1;aspect=fixed;" vertex="1" parent="1">
          <mxGeometry x="414" y="435" width="20" height="20" as="geometry" />
        </mxCell>
        <mxCell id="z2F2wyTJdAXGsAa179Ax-20" value="+" style="ellipse;whiteSpace=wrap;html=1;aspect=fixed;" vertex="1" parent="1">
          <mxGeometry x="414" y="465" width="20" height="20" as="geometry" />
        </mxCell>
        <mxCell id="z2F2wyTJdAXGsAa179Ax-21" value="+" style="ellipse;whiteSpace=wrap;html=1;aspect=fixed;" vertex="1" parent="1">
          <mxGeometry x="414" y="495" width="20" height="20" as="geometry" />
        </mxCell>
        <mxCell id="z2F2wyTJdAXGsAa179Ax-22" value="Register bank" style="rounded=0;whiteSpace=wrap;html=1;" vertex="1" parent="1">
          <mxGeometry x="454" y="434" width="59" height="120" as="geometry" />
        </mxCell>
        <mxCell id="z2F2wyTJdAXGsAa179Ax-23" style="edgeStyle=orthogonalEdgeStyle;rounded=0;orthogonalLoop=1;jettySize=auto;html=1;exitX=1;exitY=0.5;exitDx=0;exitDy=0;entryX=0.16;entryY=0.55;entryDx=0;entryDy=0;entryPerimeter=0;" edge="1" parent="1">
          <mxGeometry relative="1" as="geometry">
            <mxPoint x="395" y="544" as="sourcePoint" />
            <mxPoint x="454" y="544" as="targetPoint" />
          </mxGeometry>
        </mxCell>
        <mxCell id="z2F2wyTJdAXGsAa179Ax-24" style="edgeStyle=orthogonalEdgeStyle;rounded=0;orthogonalLoop=1;jettySize=auto;html=1;entryX=0.16;entryY=0.55;entryDx=0;entryDy=0;entryPerimeter=0;" edge="1" parent="1">
          <mxGeometry relative="1" as="geometry">
            <mxPoint x="434" y="444" as="sourcePoint" />
            <mxPoint x="454" y="443.88" as="targetPoint" />
          </mxGeometry>
        </mxCell>
        <mxCell id="z2F2wyTJdAXGsAa179Ax-25" style="edgeStyle=orthogonalEdgeStyle;rounded=0;orthogonalLoop=1;jettySize=auto;html=1;entryX=0.16;entryY=0.55;entryDx=0;entryDy=0;entryPerimeter=0;" edge="1" parent="1">
          <mxGeometry relative="1" as="geometry">
            <mxPoint x="434" y="474" as="sourcePoint" />
            <mxPoint x="454" y="473.88" as="targetPoint" />
          </mxGeometry>
        </mxCell>
        <mxCell id="z2F2wyTJdAXGsAa179Ax-26" style="edgeStyle=orthogonalEdgeStyle;rounded=0;orthogonalLoop=1;jettySize=auto;html=1;entryX=0.16;entryY=0.55;entryDx=0;entryDy=0;entryPerimeter=0;" edge="1" parent="1">
          <mxGeometry relative="1" as="geometry">
            <mxPoint x="434" y="504" as="sourcePoint" />
            <mxPoint x="454" y="503.88" as="targetPoint" />
          </mxGeometry>
        </mxCell>
        <mxCell id="z2F2wyTJdAXGsAa179Ax-28" value="num_even_packets" style="text;html=1;align=center;verticalAlign=middle;resizable=0;points=[];autosize=1;strokeColor=none;fillColor=none;" vertex="1" parent="1">
          <mxGeometry x="290" y="430" width="130" height="30" as="geometry" />
        </mxCell>
        <mxCell id="z2F2wyTJdAXGsAa179Ax-29" value="num_odd_packets" style="text;html=1;align=center;verticalAlign=middle;resizable=0;points=[];autosize=1;strokeColor=none;fillColor=none;" vertex="1" parent="1">
          <mxGeometry x="295" y="460" width="120" height="30" as="geometry" />
        </mxCell>
        <mxCell id="z2F2wyTJdAXGsAa179Ax-30" value="num_dropped_packets" style="text;html=1;align=center;verticalAlign=middle;resizable=0;points=[];autosize=1;strokeColor=none;fillColor=none;" vertex="1" parent="1">
          <mxGeometry x="270" y="490" width="150" height="30" as="geometry" />
        </mxCell>
        <mxCell id="z2F2wyTJdAXGsAa179Ax-32" value="dropped" style="text;html=1;align=center;verticalAlign=middle;resizable=0;points=[];autosize=1;strokeColor=none;fillColor=none;fontSize=8;" vertex="1" parent="1">
          <mxGeometry x="359" y="384" width="50" height="20" as="geometry" />
        </mxCell>
        <mxCell id="z2F2wyTJdAXGsAa179Ax-33" style="edgeStyle=orthogonalEdgeStyle;rounded=0;orthogonalLoop=1;jettySize=auto;html=1;exitX=0;exitY=0.75;exitDx=0;exitDy=0;" edge="1" parent="1">
          <mxGeometry relative="1" as="geometry">
            <mxPoint x="380" y="332.03846153846155" as="targetPoint" />
            <mxPoint x="399" y="332" as="sourcePoint" />
          </mxGeometry>
        </mxCell>
        <mxCell id="z2F2wyTJdAXGsAa179Ax-34" value="dropped" style="text;html=1;align=center;verticalAlign=middle;resizable=0;points=[];autosize=1;strokeColor=none;fillColor=none;fontSize=8;" vertex="1" parent="1">
          <mxGeometry x="359" y="327" width="50" height="20" as="geometry" />
        </mxCell>
        <mxCell id="z2F2wyTJdAXGsAa179Ax-35" value="S_AXIS" style="text;html=1;align=center;verticalAlign=middle;resizable=0;points=[];autosize=1;strokeColor=none;fillColor=none;" vertex="1" parent="1">
          <mxGeometry x="95" y="328" width="70" height="30" as="geometry" />
        </mxCell>
        <mxCell id="z2F2wyTJdAXGsAa179Ax-36" value="M0_AXIS" style="text;html=1;align=center;verticalAlign=middle;resizable=0;points=[];autosize=1;strokeColor=none;fillColor=none;" vertex="1" parent="1">
          <mxGeometry x="520" y="288" width="70" height="30" as="geometry" />
        </mxCell>
        <mxCell id="z2F2wyTJdAXGsAa179Ax-37" value="M1_AXIS" style="text;html=1;align=center;verticalAlign=middle;resizable=0;points=[];autosize=1;strokeColor=none;fillColor=none;" vertex="1" parent="1">
          <mxGeometry x="520" y="347" width="70" height="30" as="geometry" />
        </mxCell>
        <mxCell id="z2F2wyTJdAXGsAa179Ax-38" value="S_AXIL" style="text;html=1;align=center;verticalAlign=middle;resizable=0;points=[];autosize=1;strokeColor=none;fillColor=none;" vertex="1" parent="1">
          <mxGeometry x="336" y="530" width="60" height="30" as="geometry" />
        </mxCell>
        <mxCell id="z2F2wyTJdAXGsAa179Ax-39" value="DUT" style="rounded=0;whiteSpace=wrap;html=1;" vertex="1" parent="1">
          <mxGeometry x="340" y="620" width="160" height="220" as="geometry" />
        </mxCell>
        <mxCell id="z2F2wyTJdAXGsAa179Ax-44" style="edgeStyle=orthogonalEdgeStyle;rounded=0;orthogonalLoop=1;jettySize=auto;html=1;exitX=1;exitY=0.5;exitDx=0;exitDy=0;" edge="1" parent="1">
          <mxGeometry relative="1" as="geometry">
            <mxPoint x="340" y="649.9" as="targetPoint" />
            <mxPoint x="270" y="649.9" as="sourcePoint" />
          </mxGeometry>
        </mxCell>
        <mxCell id="z2F2wyTJdAXGsAa179Ax-40" value="AXI Lite Master" style="rounded=0;whiteSpace=wrap;html=1;" vertex="1" parent="1">
          <mxGeometry x="200" y="620" width="70" height="60" as="geometry" />
        </mxCell>
        <mxCell id="z2F2wyTJdAXGsAa179Ax-41" value="AXIS Master" style="rounded=0;whiteSpace=wrap;html=1;" vertex="1" parent="1">
          <mxGeometry x="200" y="700" width="70" height="60" as="geometry" />
        </mxCell>
        <mxCell id="z2F2wyTJdAXGsAa179Ax-42" value="Clk &amp;amp; resets" style="rounded=0;whiteSpace=wrap;html=1;" vertex="1" parent="1">
          <mxGeometry x="200" y="780" width="70" height="60" as="geometry" />
        </mxCell>
        <mxCell id="z2F2wyTJdAXGsAa179Ax-43" value="Test program in an initial block&lt;br&gt;&lt;br&gt;Sends expected outputs to scoreboard&lt;br&gt;&lt;br&gt;Controls different agents with backdoor" style="rounded=0;whiteSpace=wrap;html=1;" vertex="1" parent="1">
          <mxGeometry x="30" y="640" width="107.5" height="170" as="geometry" />
        </mxCell>
        <mxCell id="z2F2wyTJdAXGsAa179Ax-45" style="edgeStyle=orthogonalEdgeStyle;rounded=0;orthogonalLoop=1;jettySize=auto;html=1;exitX=1;exitY=0.5;exitDx=0;exitDy=0;" edge="1" parent="1">
          <mxGeometry relative="1" as="geometry">
            <mxPoint x="340" y="729.8" as="targetPoint" />
            <mxPoint x="270" y="729.8" as="sourcePoint" />
          </mxGeometry>
        </mxCell>
        <mxCell id="z2F2wyTJdAXGsAa179Ax-46" style="edgeStyle=orthogonalEdgeStyle;rounded=0;orthogonalLoop=1;jettySize=auto;html=1;exitX=1;exitY=0.5;exitDx=0;exitDy=0;" edge="1" parent="1">
          <mxGeometry relative="1" as="geometry">
            <mxPoint x="340" y="810" as="targetPoint" />
            <mxPoint x="270" y="810" as="sourcePoint" />
          </mxGeometry>
        </mxCell>
        <mxCell id="z2F2wyTJdAXGsAa179Ax-47" value="S_AXIL" style="text;html=1;align=center;verticalAlign=middle;resizable=0;points=[];autosize=1;strokeColor=none;fillColor=none;" vertex="1" parent="1">
          <mxGeometry x="333" y="634" width="60" height="30" as="geometry" />
        </mxCell>
        <mxCell id="z2F2wyTJdAXGsAa179Ax-48" value="S_AXIS" style="text;html=1;align=center;verticalAlign=middle;resizable=0;points=[];autosize=1;strokeColor=none;fillColor=none;" vertex="1" parent="1">
          <mxGeometry x="329" y="713" width="70" height="30" as="geometry" />
        </mxCell>
        <mxCell id="z2F2wyTJdAXGsAa179Ax-49" value="AXIS SLAVE" style="rounded=0;whiteSpace=wrap;html=1;" vertex="1" parent="1">
          <mxGeometry x="570" y="660" width="70" height="60" as="geometry" />
        </mxCell>
        <mxCell id="z2F2wyTJdAXGsAa179Ax-50" style="edgeStyle=orthogonalEdgeStyle;rounded=0;orthogonalLoop=1;jettySize=auto;html=1;exitX=1;exitY=0.5;exitDx=0;exitDy=0;" edge="1" parent="1">
          <mxGeometry relative="1" as="geometry">
            <mxPoint x="570" y="688.8" as="targetPoint" />
            <mxPoint x="500" y="688.8" as="sourcePoint" />
          </mxGeometry>
        </mxCell>
        <mxCell id="z2F2wyTJdAXGsAa179Ax-51" value="M0_AXIS" style="text;html=1;align=center;verticalAlign=middle;resizable=0;points=[];autosize=1;strokeColor=none;fillColor=none;" vertex="1" parent="1">
          <mxGeometry x="434" y="675" width="70" height="30" as="geometry" />
        </mxCell>
        <mxCell id="z2F2wyTJdAXGsAa179Ax-52" value="AXIS SLAVE" style="rounded=0;whiteSpace=wrap;html=1;" vertex="1" parent="1">
          <mxGeometry x="570" y="740" width="70" height="60" as="geometry" />
        </mxCell>
        <mxCell id="z2F2wyTJdAXGsAa179Ax-53" style="edgeStyle=orthogonalEdgeStyle;rounded=0;orthogonalLoop=1;jettySize=auto;html=1;exitX=1;exitY=0.5;exitDx=0;exitDy=0;" edge="1" parent="1">
          <mxGeometry relative="1" as="geometry">
            <mxPoint x="570" y="768.8" as="targetPoint" />
            <mxPoint x="500" y="768.8" as="sourcePoint" />
          </mxGeometry>
        </mxCell>
        <mxCell id="z2F2wyTJdAXGsAa179Ax-54" value="M1_AXIS" style="text;html=1;align=center;verticalAlign=middle;resizable=0;points=[];autosize=1;strokeColor=none;fillColor=none;" vertex="1" parent="1">
          <mxGeometry x="434" y="755" width="70" height="30" as="geometry" />
        </mxCell>
        <mxCell id="z2F2wyTJdAXGsAa179Ax-55" value="Scoreboard" style="rounded=0;whiteSpace=wrap;html=1;" vertex="1" parent="1">
          <mxGeometry x="680" y="640" width="107.5" height="170" as="geometry" />
        </mxCell>
        <mxCell id="z2F2wyTJdAXGsAa179Ax-56" style="edgeStyle=orthogonalEdgeStyle;rounded=0;orthogonalLoop=1;jettySize=auto;html=1;" edge="1" parent="1">
          <mxGeometry relative="1" as="geometry">
            <mxPoint x="200" y="675" as="targetPoint" />
            <mxPoint x="180" y="675" as="sourcePoint" />
          </mxGeometry>
        </mxCell>
        <mxCell id="z2F2wyTJdAXGsAa179Ax-57" value="backdoor" style="text;html=1;align=center;verticalAlign=middle;resizable=0;points=[];autosize=1;strokeColor=none;fillColor=none;fontSize=7;" vertex="1" parent="1">
          <mxGeometry x="156" y="659" width="50" height="20" as="geometry" />
        </mxCell>
        <mxCell id="z2F2wyTJdAXGsAa179Ax-58" style="edgeStyle=orthogonalEdgeStyle;rounded=0;orthogonalLoop=1;jettySize=auto;html=1;" edge="1" parent="1">
          <mxGeometry relative="1" as="geometry">
            <mxPoint x="200" y="755" as="targetPoint" />
            <mxPoint x="180" y="755" as="sourcePoint" />
          </mxGeometry>
        </mxCell>
        <mxCell id="z2F2wyTJdAXGsAa179Ax-59" value="backdoor" style="text;html=1;align=center;verticalAlign=middle;resizable=0;points=[];autosize=1;strokeColor=none;fillColor=none;fontSize=7;" vertex="1" parent="1">
          <mxGeometry x="156" y="739" width="50" height="20" as="geometry" />
        </mxCell>
        <mxCell id="z2F2wyTJdAXGsAa179Ax-60" style="edgeStyle=orthogonalEdgeStyle;rounded=0;orthogonalLoop=1;jettySize=auto;html=1;" edge="1" parent="1">
          <mxGeometry relative="1" as="geometry">
            <mxPoint x="570" y="715" as="targetPoint" />
            <mxPoint x="550" y="715" as="sourcePoint" />
          </mxGeometry>
        </mxCell>
        <mxCell id="z2F2wyTJdAXGsAa179Ax-61" value="backdoor" style="text;html=1;align=center;verticalAlign=middle;resizable=0;points=[];autosize=1;strokeColor=none;fillColor=none;fontSize=7;" vertex="1" parent="1">
          <mxGeometry x="526" y="699" width="50" height="20" as="geometry" />
        </mxCell>
        <mxCell id="z2F2wyTJdAXGsAa179Ax-62" style="edgeStyle=orthogonalEdgeStyle;rounded=0;orthogonalLoop=1;jettySize=auto;html=1;" edge="1" parent="1">
          <mxGeometry relative="1" as="geometry">
            <mxPoint x="570" y="795" as="targetPoint" />
            <mxPoint x="550" y="795" as="sourcePoint" />
          </mxGeometry>
        </mxCell>
        <mxCell id="z2F2wyTJdAXGsAa179Ax-63" value="backdoor" style="text;html=1;align=center;verticalAlign=middle;resizable=0;points=[];autosize=1;strokeColor=none;fillColor=none;fontSize=7;" vertex="1" parent="1">
          <mxGeometry x="526" y="779" width="50" height="20" as="geometry" />
        </mxCell>
        <mxCell id="z2F2wyTJdAXGsAa179Ax-64" value="" style="curved=1;endArrow=classic;html=1;rounded=0;exitX=1;exitY=0.5;exitDx=0;exitDy=0;entryX=0;entryY=0.75;entryDx=0;entryDy=0;dashed=1;strokeColor=#808080;" edge="1" parent="1" source="z2F2wyTJdAXGsAa179Ax-52" target="z2F2wyTJdAXGsAa179Ax-55">
          <mxGeometry width="50" height="50" relative="1" as="geometry">
            <mxPoint x="630" y="850" as="sourcePoint" />
            <mxPoint x="680" y="800" as="targetPoint" />
            <Array as="points">
              <mxPoint x="660" y="760" />
              <mxPoint x="660" y="770" />
              <mxPoint x="640" y="790" />
            </Array>
          </mxGeometry>
        </mxCell>
        <mxCell id="z2F2wyTJdAXGsAa179Ax-65" value="" style="curved=1;endArrow=classic;html=1;rounded=0;exitX=1;exitY=0.5;exitDx=0;exitDy=0;entryX=0;entryY=0.75;entryDx=0;entryDy=0;dashed=1;strokeColor=#808080;" edge="1" parent="1">
          <mxGeometry width="50" height="50" relative="1" as="geometry">
            <mxPoint x="640" y="690" as="sourcePoint" />
            <mxPoint x="680" y="687" as="targetPoint" />
            <Array as="points">
              <mxPoint x="650" y="700" />
              <mxPoint x="660" y="690" />
              <mxPoint x="660" y="680" />
              <mxPoint x="660" y="670" />
            </Array>
          </mxGeometry>
        </mxCell>
        <mxCell id="z2F2wyTJdAXGsAa179Ax-66" value="" style="curved=1;endArrow=classic;html=1;rounded=0;entryX=0;entryY=0.75;entryDx=0;entryDy=0;dashed=1;strokeColor=#808080;" edge="1" parent="1">
          <mxGeometry width="50" height="50" relative="1" as="geometry">
            <mxPoint x="630" y="620" as="sourcePoint" />
            <mxPoint x="680" y="662" as="targetPoint" />
            <Array as="points">
              <mxPoint x="660" y="620" />
              <mxPoint x="670" y="630" />
              <mxPoint x="660" y="640" />
              <mxPoint x="660" y="645" />
            </Array>
          </mxGeometry>
        </mxCell>
        <mxCell id="z2F2wyTJdAXGsAa179Ax-67" value="" style="curved=1;endArrow=classic;html=1;rounded=0;entryX=0;entryY=0.75;entryDx=0;entryDy=0;dashed=1;strokeColor=#808080;" edge="1" parent="1">
          <mxGeometry width="50" height="50" relative="1" as="geometry">
            <mxPoint x="640" y="830" as="sourcePoint" />
            <mxPoint x="680" y="785" as="targetPoint" />
            <Array as="points">
              <mxPoint x="660" y="820" />
              <mxPoint x="670" y="820" />
              <mxPoint x="660" y="790" />
            </Array>
          </mxGeometry>
        </mxCell>
        <mxCell id="z2F2wyTJdAXGsAa179Ax-68" value="actual" style="text;html=1;align=center;verticalAlign=middle;resizable=0;points=[];autosize=1;strokeColor=none;fillColor=none;fontColor=#808080;" vertex="1" parent="1">
          <mxGeometry x="670" y="670" width="60" height="30" as="geometry" />
        </mxCell>
        <mxCell id="z2F2wyTJdAXGsAa179Ax-70" value="expected" style="text;html=1;align=center;verticalAlign=middle;resizable=0;points=[];autosize=1;strokeColor=none;fillColor=none;fontColor=#808080;" vertex="1" parent="1">
          <mxGeometry x="673" y="645" width="70" height="30" as="geometry" />
        </mxCell>
        <mxCell id="z2F2wyTJdAXGsAa179Ax-71" value="actual" style="text;html=1;align=center;verticalAlign=middle;resizable=0;points=[];autosize=1;strokeColor=none;fillColor=none;fontColor=#808080;" vertex="1" parent="1">
          <mxGeometry x="670" y="755" width="60" height="30" as="geometry" />
        </mxCell>
        <mxCell id="z2F2wyTJdAXGsAa179Ax-72" value="expected" style="text;html=1;align=center;verticalAlign=middle;resizable=0;points=[];autosize=1;strokeColor=none;fillColor=none;fontColor=#808080;" vertex="1" parent="1">
          <mxGeometry x="673" y="770" width="70" height="30" as="geometry" />
        </mxCell>
      </root>
    </mxGraphModel>
  </diagram>
</mxfile>
